<svg id="Layer_1" data-name="Layer 1" xmlns="http://www.w3.org/2000/svg" viewBox="0 0 600 600.02"><defs><style>.cls-1{fill:#4d9f39;}.cls-2{fill:#dd1367;}.cls-3{fill:#212121;}</style></defs><path class="cls-1" d="M515.58,300A215.51,215.51,0,0,1,300,515.6l-5.63,20.66v52.15L300,600A299.94,299.94,0,0,0,600,300l-9.88-5.63H531.94L515.58,300Z"/><path class="cls-2" d="M300,84.42A215.4,215.4,0,0,0,84.42,300l-14.87,5.63H17.39L0,300A299.79,299.79,0,0,1,300,0l5.63,22.71V66.84L300,84.42Z"/><path class="cls-3" d="M300,84.42A215.4,215.4,0,0,1,515.58,300H600A299.79,299.79,0,0,0,300,0V84.42Z"/><path class="cls-3" d="M84.42,300A215.51,215.51,0,0,0,300,515.6V600A299.94,299.94,0,0,1,0,300Z"/></svg>