<?xml version="1.0" encoding="utf-8"?>
<!-- Generator: Adobe Illustrator 25.4.2, SVG Export Plug-In . SVG Version: 6.00 Build 0)  -->
<svg version="1.1" id="Layer_1" xmlns="http://www.w3.org/2000/svg" xmlns:xlink="http://www.w3.org/1999/xlink" x="0px" y="0px"
	 viewBox="0 0 576 567" style="enable-background:new 0 0 576 567;" xml:space="preserve">
<style type="text/css">
	.st0{fill:#E8E8E8;}
	.st1{fill:#4D9F39;}
	.st2{fill:#DD1367;}
	.st3{fill:#212121;}
	.st4{opacity:0.5;fill:#E8E8E8;enable-background:new    ;}
	.st5{fill:#1E69C0;}
	.st6{fill:#FF3A20;}
</style>
<circle class="st0" cx="9" cy="198" r="9"/>
<circle class="st0" cx="36" cy="198" r="9"/>
<circle class="st1" cx="63" cy="198" r="9"/>
<circle class="st0" cx="9" cy="171" r="9"/>
<circle class="st1" cx="36" cy="171" r="9"/>
<circle class="st0" cx="63" cy="171" r="9"/>
<circle class="st0" cx="9" cy="144" r="9"/>
<circle class="st1" cx="36" cy="144" r="9"/>
<circle class="st0" cx="63" cy="144" r="9"/>
<circle class="st2" cx="112.5" cy="247.5" r="31.5"/>
<circle class="st0" cx="184.5" cy="247.5" r="31.5"/>
<circle class="st0" cx="256.5" cy="247.5" r="31.5"/>
<circle class="st0" cx="112.5" cy="319.5" r="31.5"/>
<circle class="st0" cx="184.5" cy="319.5" r="31.5"/>
<circle class="st2" cx="256.5" cy="319.5" r="31.5"/>
<circle class="st0" cx="112.5" cy="391.5" r="31.5"/>
<circle class="st0" cx="184.5" cy="391.5" r="31.5"/>
<circle class="st2" cx="256.5" cy="391.5" r="31.5"/>
<circle class="st0" cx="337.5" cy="319.5" r="31.5"/>
<circle class="st0" cx="409.5" cy="319.5" r="31.5"/>
<circle class="st0" cx="481.5" cy="319.5" r="31.5"/>
<circle class="st0" cx="337.5" cy="391.5" r="31.5"/>
<circle class="st0" cx="409.5" cy="391.5" r="31.5"/>
<circle class="st3" cx="481.5" cy="391.5" r="31.5"/>
<circle class="st0" cx="337.5" cy="463.5" r="31.5"/>
<circle class="st3" cx="409.5" cy="463.5" r="31.5"/>
<circle class="st0" cx="481.5" cy="463.5" r="31.5"/>
<circle class="st4" cx="184.5" cy="103.5" r="103.5"/>
<circle class="st0" cx="364.5" cy="211.5" r="67.5"/>
<circle class="st5" cx="508.5" cy="211.5" r="67.5"/>
<circle class="st0" cx="364.5" cy="67.5" r="67.5"/>
<circle class="st5" cx="508.5" cy="67.5" r="67.5"/>
<circle class="st0" cx="234" cy="558" r="9"/>
<circle class="st0" cx="261" cy="558" r="9"/>
<circle class="st6" cx="288" cy="558" r="9"/>
<circle class="st6" cx="234" cy="531" r="9"/>
<circle class="st6" cx="261" cy="531" r="9"/>
<circle class="st6" cx="288" cy="531" r="9"/>
<circle class="st6" cx="234" cy="504" r="9"/>
<circle class="st0" cx="261" cy="504" r="9"/>
<circle class="st0" cx="288" cy="504" r="9"/>
</svg>
