<svg id="Layer_1" data-name="Layer 1" xmlns="http://www.w3.org/2000/svg" viewBox="0 0 123.89 109"><defs><style>.cls-1{fill:#ff3a20;}.cls-1,.cls-3{opacity:0.2;}.cls-2{fill:#e8e8e8;}.cls-3{fill:#4d9f39;}.cls-4,.cls-5,.cls-7{fill:#fff;}.cls-4,.cls-8{stroke:#6c6c6c;}.cls-4,.cls-5,.cls-8,.cls-9{stroke-linecap:round;stroke-linejoin:round;}.cls-5,.cls-9{stroke:#1E69C0;}.cls-6{fill:#e6f4fb;}.cls-8,.cls-9{fill:none;}</style></defs><polygon class="cls-1" points="67.09 67.38 67.26 58.18 78.02 58.18 78.02 62.57 67.09 67.38"/><polygon class="cls-1" points="84.27 67.38 84.44 58.18 95.2 58.18 95.2 62.57 84.27 67.38"/><circle class="cls-2" cx="82.83" cy="47.52" r="3.29"/><path class="cls-3" d="M34.44,72.14a3.46,3.46,0,1,1-6.92,0c0-1.91,1.82-9.7,3.74-9.7S34.44,70.23,34.44,72.14Z"/><path class="cls-3" d="M43.14,80.36a3.47,3.47,0,0,1-6.93,0c0-1.92,1.83-9.7,3.74-9.7S43.14,78.44,43.14,80.36Z"/><path class="cls-4" d="M110.39,49.76a47,47,0,0,1,.49,6.86c0,1.35-.06,2.68-.17,4"/><path class="cls-4" d="M108.4,72c-.33,1-.69,2-1.08,2.92"/><path class="cls-5" d="M61.49,105.54H62a48.86,48.86,0,0,0,39.89-20.64"/><path class="cls-5" d="M41.76,101.18c-1.14-.51-2.27-1.08-3.36-1.68"/><path class="cls-5" d="M27.12,91A49,49,0,0,1,15.49,72"/><path class="cls-4" d="M35.66,19.46a45.51,45.51,0,0,1,67.5,17.85"/><path class="cls-4" d="M16.6,60.62c-.11-1.32-.17-2.65-.17-4a45.35,45.35,0,0,1,2.74-15.57"/><path class="cls-4" d="M107.09,50.76a45.19,45.19,0,0,1,.37,5.86c0,1.35,0,2.68-.17,4"/><path class="cls-4" d="M41.25,28.84c2.78.31,5.22,1.46,5.57,2.95.53,2.26-4,4.22-3.25,6.5.45,1.39,2.27,1.11,3.85,3.24,1.43,1.92,1.36,4.08,1.62,4,.43,0-.95-5.14,1.63-8.31,1-1.18,2.75-2.43,4.26-2s1.32,2.35,3.45,3.86,3.43.41,5.07,1.83,2.38,4.74,1.21,6.08S61,47.05,60,48.42s1,4,0,5.07-2.85-.6-4.45.41c-1.13.71-1,1.94-1.64,3.86a12.88,12.88,0,0,1-3.33,5"/><path class="cls-4" d="M27.83,62.57c-.08-.25-.18-.5-.28-.76a6.77,6.77,0,0,0-.84-1.51v0c-1.25-1.68-2.71-1.66-3.82-4.15s-.44-4.43-.33-6.62a8.48,8.48,0,0,0-.68-3.93,10.17,10.17,0,0,0-2-3"/><path class="cls-4" d="M62.8,12.25a3.62,3.62,0,0,0-1.38,1.49c-.55,1.16-.19,2.22-1,2.85s-2.14-.26-3,.4-1.16,2.93-.2,4.06c1.46,1.7,4.42-.62,7.1,1,2.89,1.75,3,6.62,3,7.29,0,3-1.19,3.93-.61,5.89s2.65,4.19,4.87,4.26c3.27.11,5.74-4.25,6.08-4.87,1-1.74.78-2.5,1.83-3.24,1.76-1.26,3.61,0,5.06-1.22,1-.87.8-2.09,1.22-3.65a9.22,9.22,0,0,1,3.55-4.86"/><path class="cls-6" d="M37.39,25.83a7,7,0,0,1,.65,3c0,4.31-3.81,7.81-8.51,7.81a9.23,9.23,0,0,1-4.09-1,9.62,9.62,0,0,1-6.24,2.18,9.15,9.15,0,0,1-7.39-3.42A5.67,5.67,0,0,1,2.52,28a5.66,5.66,0,0,0,9.29.48,9.16,9.16,0,0,0,7.4,3.42,9.6,9.6,0,0,0,6.23-2.17,9.09,9.09,0,0,0,4.09.95A8.53,8.53,0,0,0,37.39,25.83Z"/><path class="cls-7" d="M37.39,25.83l-12.14.74-13.51.82L2.52,28a5.73,5.73,0,0,1,4.07-2.62,6,6,0,0,1-.67-2.7,6.07,6.07,0,0,1,10.87-3.73A7.1,7.1,0,0,1,30.67,21s0,.06,0,.08A8.4,8.4,0,0,1,37.39,25.83Z"/><path class="cls-7" d="M25.25,26.57l12.14-.74a8.53,8.53,0,0,1-7.86,4.81,9.09,9.09,0,0,1-4.09-.95Z"/><path class="cls-7" d="M25.25,26.57l.19,3.12a9.6,9.6,0,0,1-6.23,2.17,9.16,9.16,0,0,1-7.4-3.42l-.07-1.05Z"/><path class="cls-7" d="M11.74,27.39l.07,1.05A5.66,5.66,0,0,1,2.52,28Z"/><path class="cls-8" d="M37.39,25.83a8.4,8.4,0,0,0-6.73-4.74s0-.05,0-.08a7.1,7.1,0,0,0-13.88-2.1A6.07,6.07,0,0,0,5.92,22.64a6,6,0,0,0,.67,2.7A5.73,5.73,0,0,0,2.52,28a5.67,5.67,0,0,0,9.29,6.47,9.15,9.15,0,0,0,7.39,3.42,9.62,9.62,0,0,0,6.24-2.18,9.23,9.23,0,0,0,4.09,1c4.7,0,8.51-3.5,8.51-7.81A7,7,0,0,0,37.39,25.83Z"/><path class="cls-8" d="M40.25,4.51a4.15,4.15,0,0,0-8.29,0,2.78,2.78,0,0,0,.1,5.55h8.09a2.78,2.78,0,0,0,.1-5.55Z"/><path class="cls-4" d="M29.41,5.28a3.48,3.48,0,0,0-3,1.77H24a2.6,2.6,0,0,0,0,5.2h5.39a3.49,3.49,0,0,0,0-7Z"/><path class="cls-8" d="M33.32,12.75c-.71.46-1.39.93-2.06,1.42"/><path class="cls-8" d="M114.25,53.75c0,1,.07,1.9.07,2.87,0,1.34,0,2.68-.14,4"/><path class="cls-8" d="M81,105.41a52.58,52.58,0,0,0,24.65-20"/><path class="cls-9" d="M54.67,108.5a51.11,51.11,0,0,1-11.67-3"/><path class="cls-9" d="M11.87,72a52.44,52.44,0,0,0,22.55,29.17"/><path class="cls-8" d="M109.84,77.85h0A52.31,52.31,0,0,0,112,72"/><path class="cls-8" d="M48.52,6a52.45,52.45,0,0,1,58.92,24.66"/><path class="cls-8" d="M9.72,60.62c-.11-1.32-.15-2.66-.15-4a51.9,51.9,0,0,1,2.17-14.94"/><path class="cls-8" d="M98.89,67.26a7.67,7.67,0,0,0,1.44.12c3.84,0,3.84-2.14,7.69-2.14s3.84,2.14,7.69,2.14,3.84-2.14,7.68-2.14"/><path class="cls-8" d="M81.54,66.53l-.45-.24"/><path class="cls-9" d="M42.38,66.5a7.36,7.36,0,0,1,4.2-1.26c3.84,0,3.84,2.14,7.67,2.14s3.85-2.14,7.69-2.14a8.11,8.11,0,0,1,1.85.2"/><path class="cls-9" d="M.5,65.24c3.84,0,3.84,2.14,7.67,2.14s3.85-2.14,7.69-2.14,3.83,2.14,7.68,2.14a7,7,0,0,0,2.27-.33"/><path class="cls-2" d="M118.06,40.87a5.65,5.65,0,0,1-.66,2.62,2.78,2.78,0,0,1,.66,1.8,2.82,2.82,0,0,1-5.38,1.22l-.29,0a5.61,5.61,0,0,1-2.67-.69,3.79,3.79,0,0,1-3,1.51l-3.79-3.79a3.79,3.79,0,0,1,3.79-3.78h.11a5.67,5.67,0,0,1,11.24,1.07Z"/><path class="cls-7" d="M98.27,47.44a4,4,0,0,1-3.12,1.48,4.11,4.11,0,0,1-4-3.23l11.55.49a3.3,3.3,0,0,1-3,1.53A4.19,4.19,0,0,1,98.27,47.44Z"/><path class="cls-7" d="M102.7,46.18l-11.55-.49a4.08,4.08,0,0,1,7.67-.93,4.24,4.24,0,0,1,.88-.11,3.35,3.35,0,0,1,3,1.53Z"/><path class="cls-2" d="M98.27,47.44a4.19,4.19,0,0,0,1.44.27,3.3,3.3,0,0,0,3-1.53h0a1.86,1.86,0,0,1,.21.87c0,1.31-1.43,2.38-3.22,2.38a4.13,4.13,0,0,1-1.43-.26,4.08,4.08,0,0,1-7.21-2.63,4,4,0,0,1,.09-.85,4.11,4.11,0,0,0,4,3.23A4,4,0,0,0,98.27,47.44Z"/><path class="cls-7" d="M91.5,51.77h-3a1.74,1.74,0,0,1,3,0Z"/><path class="cls-7" d="M88.45,51.77h3a1.73,1.73,0,0,1-1.52.9A1.76,1.76,0,0,1,88.45,51.77Z"/><path class="cls-7" d="M88.22,52.64a1.74,1.74,0,0,1,.23-.87,1.76,1.76,0,0,0,1.53.9,1.73,1.73,0,0,0,1.52-.9,1.74,1.74,0,0,1,.23.87,1.76,1.76,0,0,1-3.51,0Z"/><path class="cls-8" d="M88.45,51.77a1.74,1.74,0,0,0-.23.87,1.76,1.76,0,0,0,3.51,0,1.74,1.74,0,0,0-.23-.87,1.74,1.74,0,0,0-3,0Z"/><path class="cls-8" d="M91.15,45.69a4.08,4.08,0,0,1,7.67-.93,4.24,4.24,0,0,1,.88-.11,3.35,3.35,0,0,1,3,1.53,1.86,1.86,0,0,1,.21.87c0,1.31-1.43,2.38-3.22,2.38a4.13,4.13,0,0,1-1.43-.26,4.08,4.08,0,0,1-7.21-2.63A4,4,0,0,1,91.15,45.69Z"/><path class="cls-8" d="M102.92,43.57a3.79,3.79,0,0,1,3.79-3.78h.11a5.67,5.67,0,1,1,10.58,3.69,2.78,2.78,0,0,1,.66,1.8,2.82,2.82,0,0,1-5.38,1.22l-.29,0a5.61,5.61,0,0,1-2.67-.69,3.79,3.79,0,0,1-3,1.51"/><path class="cls-8" d="M73.31,49.28a2.29,2.29,0,0,0-1,2.2,2.06,2.06,0,0,0-.44.23,1.39,1.39,0,1,0,1.47,2.21,2.25,2.25,0,0,0,.58-.57,2.27,2.27,0,0,0,2.53-3.44A2.29,2.29,0,0,0,73.31,49.28Z"/><polyline class="cls-8" points="84.01 74.29 84.59 58.18 86.56 58.18 93.38 58.18 95.35 58.18 95.45 61.15 95.85 72.17"/><rect class="cls-8" x="86.56" y="55.9" width="6.83" height="2.28"/><line class="cls-8" x1="95.46" y1="61.14" x2="86.56" y2="61.14"/><polyline class="cls-8" points="66.71 73.21 67.26 58.18 69.23 58.18 76.05 58.18 78.02 58.18 78.13 61.15 78.49 71.05 78.49 71.06"/><rect class="cls-8" x="69.23" y="55.9" width="6.83" height="2.28"/><line class="cls-8" x1="78.13" y1="61.14" x2="69.23" y2="61.14"/><path class="cls-8" d="M76.88,44.94a2.21,2.21,0,0,1,2.21-2.22h.07a2.15,2.15,0,1,1,4.3,0,2.1,2.1,0,0,1-.29,1.06,3.41,3.41,0,1,1-3.87,3.37v0"/><polyline class="cls-8" points="104.53 79.89 88.99 70.79 88.99 79.89"/><rect class="cls-8" x="92.63" y="80.14" width="3.9" height="7.49" transform="translate(189.17 167.76) rotate(-180)"/><polyline class="cls-8" points="89.08 79.89 73.53 70.79 73.53 79.89"/><rect class="cls-8" x="77.18" y="80.14" width="3.9" height="7.49" transform="translate(158.26 167.76) rotate(-180)"/><polyline class="cls-8" points="73.63 79.89 58.08 70.79 58.08 95.23"/><rect class="cls-8" x="61.73" y="80.14" width="3.9" height="7.49" transform="translate(127.36 167.76) rotate(-180)"/><line class="cls-8" x1="65.26" y1="95.23" x2="29.82" y2="95.23"/><line class="cls-8" x1="39.68" y1="83.88" x2="39.68" y2="95.44"/><path class="cls-8" d="M43.42,78c0,5-3.74,6-3.74,6s-3.74-1-3.74-6,3.74-12.22,3.74-12.22S43.42,73,43.42,78Z"/><line class="cls-8" x1="39.68" y1="69.86" x2="39.68" y2="83.7"/><line class="cls-8" x1="41.48" y1="74.49" x2="39.83" y2="77.32"/><line class="cls-8" x1="42.12" y1="78.27" x2="39.68" y2="80.84"/><line class="cls-8" x1="39.68" y1="78.87" x2="37.49" y2="76.14"/><line class="cls-8" x1="31.26" y1="76.47" x2="31.26" y2="95.23"/><path class="cls-8" d="M35,70.61c0,5-3.74,6-3.74,6s-3.74-1-3.74-6,3.74-12.22,3.74-12.22S35,65.58,35,70.61Z"/><line class="cls-8" x1="31.26" y1="62.44" x2="31.26" y2="76.28"/><line class="cls-8" x1="33.06" y1="67.08" x2="31.41" y2="69.9"/><line class="cls-8" x1="33.7" y1="70.85" x2="31.26" y2="73.42"/><line class="cls-8" x1="31.26" y1="71.46" x2="29.07" y2="68.73"/></svg>