<svg id="Layer_1" data-name="Layer 1" xmlns="http://www.w3.org/2000/svg" viewBox="0 0 114.92 109.67"><defs><style>.cls-1,.cls-6,.cls-8{fill:none;}.cls-1,.cls-3,.cls-6,.cls-8{stroke:#6c6c6c;stroke-linecap:round;stroke-linejoin:round;}.cls-2{fill:#ceeaf7;}.cls-3,.cls-4{fill:#6c6c6c;}.cls-5{fill:#ffd8d2;}.cls-6{stroke-dasharray:30 6 10 2;}.cls-7{fill:#e8e8e8;}.cls-8{stroke-width:1.08px;}</style></defs><path class="cls-1" d="M16.21,81.12q-1.4-2-2.59-4.15"/><path class="cls-1" d="M67.36,100.67A48.27,48.27,0,0,1,56.67,102"/><path class="cls-1" d="M39.65,99.14a47.67,47.67,0,0,0,10.76,2.53"/><circle class="cls-1" cx="12.85" cy="75.51" r="1.66"/><circle class="cls-1" cx="53.53" cy="102" r="3.14"/><path class="cls-1" d="M104.56,53.5a49.07,49.07,0,0,1-.66,8"/><path class="cls-1" d="M45.65,94.71A42.53,42.53,0,0,0,56.06,96a41.09,41.09,0,0,0,5.35-.34"/><line class="cls-1" x1="82.6" y1="90.46" x2="82.6" y2="90.45"/><line class="cls-1" x1="68.09" y1="20.1" x2="70.74" y2="22.76"/><line class="cls-1" x1="68.09" y1="23.67" x2="70.74" y2="26.33"/><line class="cls-1" x1="68.09" y1="27.24" x2="70.74" y2="29.9"/><line class="cls-1" x1="68.09" y1="30.82" x2="70.74" y2="33.47"/><line class="cls-1" x1="68.09" y1="34.39" x2="70.74" y2="37.05"/><line class="cls-1" x1="68.09" y1="37.96" x2="70.74" y2="40.62"/><line class="cls-1" x1="68.09" y1="41.53" x2="70.74" y2="44.19"/><polygon class="cls-2" points="41.39 45.49 41.39 38.42 41.39 10.03 52.82 10.03 41.39 45.49"/><polygon class="cls-2" points="49.74 35.97 49.74 28.89 49.74 0.5 61.18 0.5 49.74 35.97"/><polygon class="cls-2" points="47.11 56.13 47.11 49.05 47.11 20.66 58.54 20.66 47.11 56.13"/><line class="cls-1" x1="55.67" y1="31.37" x2="60.45" y2="31.37"/><line class="cls-1" x1="55.67" y1="34" x2="60.45" y2="34"/><line class="cls-1" x1="55.67" y1="36.63" x2="60.45" y2="36.63"/><line class="cls-1" x1="55.67" y1="41.89" x2="60.45" y2="41.89"/><line class="cls-1" x1="55.67" y1="44.52" x2="60.45" y2="44.52"/><polyline class="cls-1" points="41.39 51.4 41.39 10.03 52.82 10.03 52.82 17.66"/><line class="cls-1" x1="52.82" y1="22.77" x2="52.82" y2="61.5"/><polyline class="cls-1" points="65.44 20.1 70.73 20.1 70.73 57.18"/><polyline class="cls-1" points="47.11 57.18 47.11 20.1 61.44 20.1"/><polyline class="cls-1" points="49.7 8.02 49.7 0.5 63.44 0.5 63.44 53.96"/><line class="cls-1" x1="63.45" y1="3.17" x2="57.72" y2="3.17"/><line class="cls-1" x1="63.45" y1="6.38" x2="57.72" y2="6.38"/><line class="cls-1" x1="63.45" y1="9.58" x2="57.72" y2="9.58"/><line class="cls-1" x1="43.78" y1="12.85" x2="50.43" y2="12.85"/><path class="cls-1" d="M39.32,42.12A19.5,19.5,0,1,0,76.17,51"/><path class="cls-1" d="M100.73,44.67c0-2.72-5.92-1.85-6-6.13a2.86,2.86,0,0,1-1.55.67,2.83,2.83,0,0,1-1.55-.65c-.08,4.25-6,3.4-6,6.11"/><path class="cls-1" d="M97.16,33a.77.77,0,0,1,0,.15,1.1,1.1,0,0,1,1,1.1v.08a1.12,1.12,0,0,1-1.11,1.12H97c-.71,2.17-2.65,3.74-3.75,3.74s-3-1.57-3.74-3.74h-.14a1.12,1.12,0,0,1-1.12-1.12v-.08a1.11,1.11,0,0,1,1-1.1c0-.13,0-.25,0-.38"/><path class="cls-3" d="M98.27,30.72a1.27,1.27,0,0,0,.55-1,1.29,1.29,0,0,0-1.29-1.3,1.45,1.45,0,0,0-.35.07.83.83,0,0,0,.07-.32.92.92,0,0,0-1.84,0,1.38,1.38,0,0,0-.28-.19,1.14,1.14,0,0,0,.27-.72,1.17,1.17,0,0,0-2.34,0,1,1,0,0,0,0,.17h0a1.76,1.76,0,0,0-.4.06s0,0,0,0a.92.92,0,1,0-1.83,0,1.13,1.13,0,0,0,.06.32.8.8,0,0,0-.66-.35.85.85,0,0,0-.84.84.79.79,0,0,0,.07.32,1.08,1.08,0,0,0-.5-.15,1,1,0,0,0-1,1,1,1,0,0,0,.89,1,1.28,1.28,0,0,0-.61,1.08,1.32,1.32,0,0,0,2.63,0h0a1.26,1.26,0,0,0,1.1-1.24,1,1,0,0,0-.06-.3,1.57,1.57,0,0,0,1.18.54,1.55,1.55,0,0,0,1-.4,1.17,1.17,0,0,0,1.32-.26.35.35,0,0,0,0,.11,1.24,1.24,0,0,0-.88,1.18,1.25,1.25,0,0,0,1.25,1.25,1.18,1.18,0,0,0,.5-.11,1.31,1.31,0,0,0,2.52-.5A1.28,1.28,0,0,0,98.27,30.72ZM90.55,29h0a1.3,1.3,0,0,0-.6.23,1.12,1.12,0,0,0-.08-.26.86.86,0,0,0,.36.08A.78.78,0,0,0,90.55,29Z"/><path class="cls-1" d="M91.18,41.35h0a2.91,2.91,0,0,0,4.11,0h0"/><path class="cls-1" d="M37.35,95.93c0-2.54-5.51-1.73-5.56-5.72a2.61,2.61,0,0,1-1.44.63,2.62,2.62,0,0,1-1.45-.6c-.07,4-5.55,3.16-5.55,5.69"/><path class="cls-1" d="M32.84,82.07l0,0h0"/><path class="cls-1" d="M34.13,85.22a1,1,0,0,1,.87,1v.07a1,1,0,0,1-1,1h-.13c-.67,2-2.46,3.48-3.49,3.48s-2.84-1.46-3.48-3.48h-.13a1,1,0,0,1-1-1v-.07a1,1,0,0,1,1-1"/><path class="cls-1" d="M30.76,78.59H30A3.38,3.38,0,0,0,26.65,82v3.24l.57,1,.83-4.15h4.81l.66,4.15.62-1V82A3.38,3.38,0,0,0,30.76,78.59Z"/><polyline class="cls-1" points="27.93 92.51 30.4 95.93 32.76 92.51"/><path class="cls-1" d="M23.7,63.43c0-2.6-5.67-1.77-5.71-5.87a2.74,2.74,0,0,1-1.49.65A2.67,2.67,0,0,1,15,57.59c-.08,4.07-5.71,3.25-5.71,5.84"/><path class="cls-1" d="M12.94,60.66a5,5,0,0,0,7.12,0"/><path class="cls-4" d="M11.72,53.48v.08a1,1,0,0,0,.14.51h0a5.46,5.46,0,0,1-2.6-4.47c0-3.23,3.25-5.84,7.25-5.84s7.26,2.61,7.26,5.84a5.5,5.5,0,0,1-2.61,4.48h0a1,1,0,0,0,.15-.53v-.08a1.05,1.05,0,0,0-1-1,6,6,0,0,0-.08-.61,3.74,3.74,0,0,1-3.14-3.7h-.21C16.71,49.72,15.05,51,13,51h0a7.3,7.3,0,0,0-.29,1.45A1.05,1.05,0,0,0,11.72,53.48Z"/><path class="cls-1" d="M20.22,51.82a6,6,0,0,1,.08.61,1.05,1.05,0,0,1,1,1v.08a1,1,0,0,1-.15.53,1.05,1.05,0,0,1-.92.54h-.14c-.68,2.08-2.53,3.58-3.58,3.58s-2.92-1.5-3.58-3.58h-.13a1.07,1.07,0,0,1-.93-.56,1,1,0,0,1-.14-.51v-.08a1.05,1.05,0,0,1,1-1A7.3,7.3,0,0,1,13,51"/><path class="cls-1" d="M16.88,47.86a2,2,0,0,1,0,.25C16.71,49.72,15.05,51,13,51"/><path class="cls-1" d="M20.83,51.87a3.08,3.08,0,0,1-.61,0,3.74,3.74,0,0,1-3.14-3.7"/><path class="cls-1" d="M21.14,54.09h0a5.5,5.5,0,0,0,2.61-4.48c0-3.23-3.25-5.84-7.26-5.84s-7.25,2.61-7.25,5.84a5.46,5.46,0,0,0,2.6,4.47"/><path class="cls-1" d="M12.93,54.67l-.09,0"/><path class="cls-1" d="M20.17,54.63l-.11,0"/><path class="cls-5" d="M27.82,43.06a16,16,0,1,1-22.63,0A16,16,0,0,1,27.82,43.06Zm1.23,11.31A12.54,12.54,0,0,0,7.63,45.5a12.55,12.55,0,1,0,21.42,8.87Z"/><path class="cls-1" d="M27.82,65.68a16,16,0,1,0-22.63,0A16,16,0,0,0,27.82,65.68Z"/><path class="cls-6" d="M16.5,66.92a12.55,12.55,0,1,1,8.87-3.67A12.46,12.46,0,0,1,16.5,66.92Z"/><line class="cls-1" x1="16.5" y1="62.13" x2="16.5" y2="66.92"/><path class="cls-1" d="M102.7,99.13c0-4.15-9-2.82-9.08-9.35a3.29,3.29,0,0,1-4.73,0c-.12,6.47-9.08,5.16-9.08,9.3"/><path class="cls-1" d="M97.16,80.64c.06.32.11.64.14,1a1.68,1.68,0,0,1,1.57,1.68v.12a1.71,1.71,0,0,1-1.71,1.71H97c-1.08,3.3-4,5.69-5.69,5.69s-4.66-2.39-5.71-5.69h-.2a1.71,1.71,0,0,1-1.71-1.71v-.12a1.68,1.68,0,0,1,1.57-1.68,11.29,11.29,0,0,1,.46-2.3"/><path class="cls-1" d="M92.77,73c-9.23-1.77-14.2,11.8-8.31,15.52"/><path class="cls-1" d="M82.6,90.45h0a3.27,3.27,0,0,0,2.19,4.67h0"/><path class="cls-1" d="M89.73,73C99,71.27,103.93,84.84,98,88.56"/><path class="cls-1" d="M98.05,88.56c1.55,0,4.17,5-.32,6.57"/><path class="cls-1" d="M91.86,74.35c0,2.74-2.77,5-6.19,5"/><path class="cls-1" d="M98.14,80.73a6,6,0,0,1-6-6"/><path class="cls-1" d="M85.59,94.71a8,8,0,0,0,11.33,0"/><path class="cls-2" d="M107.63,69.62a23.17,23.17,0,1,1-32.76,0A23.17,23.17,0,0,1,107.63,69.62ZM109.42,86a18.16,18.16,0,1,0-5.32,12.84A18,18,0,0,0,109.42,86Z"/><path class="cls-1" d="M107.63,102.39a23.17,23.17,0,1,0-32.76,0A23.17,23.17,0,0,0,107.63,102.39Z"/><path class="cls-6" d="M91.25,104.17a18.16,18.16,0,1,1,12.85-5.32A18,18,0,0,1,91.25,104.17Z"/><path class="cls-7" d="M104.88,23.69a16.5,16.5,0,1,1-23.33,0A16.51,16.51,0,0,1,104.88,23.69Zm1.27,11.67a12.94,12.94,0,1,0-3.79,9.15A12.83,12.83,0,0,0,106.15,35.36Z"/><path class="cls-1" d="M104.88,47a16.5,16.5,0,1,0-23.33,0A16.51,16.51,0,0,0,104.88,47Z"/><path class="cls-6" d="M93.21,48.3a12.94,12.94,0,1,1,9.15-3.79A12.81,12.81,0,0,1,93.21,48.3Z"/><path class="cls-7" d="M39.89,77.71a13.5,13.5,0,1,1-19.09,0A13.48,13.48,0,0,1,39.89,77.71Zm1,9.55a10.58,10.58,0,1,0-3.1,7.48A10.52,10.52,0,0,0,40.93,87.26Z"/><path class="cls-1" d="M39.89,96.8a13.5,13.5,0,1,0-19.09,0A13.48,13.48,0,0,0,39.89,96.8Z"/><path class="cls-6" d="M30.35,97.84a10.58,10.58,0,1,1,7.48-3.1A10.52,10.52,0,0,1,30.35,97.84Z"/><path class="cls-1" d="M82.39,11.63A44.14,44.14,0,0,0,73,6.33"/><path class="cls-1" d="M100.56,47.5"/><path class="cls-1" d="M15.24,29.75a44.59,44.59,0,0,1,18.95-21c1-.59,2.09-1.13,3.17-1.63"/><circle class="cls-1" cx="14.29" cy="32.12" r="2.56"/><circle class="cls-1" cx="39.19" cy="6.3" r="2"/><circle class="cls-1" cx="71.12" cy="5.61" r="2"/><circle class="cls-1" cx="83.98" cy="12.85" r="2"/><line class="cls-8" x1="53.72" y1="67.86" x2="53.65" y2="68.26"/><line class="cls-8" x1="52.95" y1="72.2" x2="52.66" y2="73.86"/><line class="cls-8" x1="50.86" y1="67.09" x2="50.72" y2="67.49"/><line class="cls-8" x1="49.35" y1="71.24" x2="48.78" y2="72.82"/><line class="cls-8" x1="48.18" y1="65.84" x2="47.97" y2="66.2"/><line class="cls-8" x1="45.97" y1="69.66" x2="45.13" y2="71.12"/><line class="cls-8" x1="45.76" y1="64.14" x2="45.48" y2="64.48"/><line class="cls-8" x1="42.91" y1="67.53" x2="41.84" y2="68.81"/><line class="cls-8" x1="43.67" y1="62.05" x2="43.33" y2="62.34"/><line class="cls-8" x1="40.27" y1="64.91" x2="39" y2="65.97"/><line class="cls-8" x1="79.39" y1="55.14" x2="77.82" y2="54.86"/><line class="cls-8" x1="73.88" y1="54.17" x2="73.39" y2="54.08"/><line class="cls-8" x1="78.35" y1="59.03" x2="76.83" y2="58.48"/><line class="cls-8" x1="73.08" y1="57.11" x2="72.62" y2="56.94"/><line class="cls-8" x1="76.65" y1="62.67" x2="75.23" y2="61.85"/><line class="cls-8" x1="71.77" y1="59.85" x2="71.37" y2="59.62"/><line class="cls-8" x1="74.34" y1="65.97" x2="73.07" y2="64.9"/><line class="cls-8" x1="70.01" y1="62.34" x2="69.67" y2="62.05"/><line class="cls-8" x1="71.5" y1="68.81" x2="70.42" y2="67.53"/><line class="cls-8" x1="67.86" y1="64.48" x2="67.58" y2="64.14"/><line class="cls-8" x1="68.21" y1="71.12" x2="67.37" y2="69.66"/><line class="cls-8" x1="65.37" y1="66.2" x2="65.16" y2="65.84"/><line class="cls-8" x1="64.56" y1="72.82" x2="63.99" y2="71.24"/><line class="cls-8" x1="62.62" y1="67.49" x2="62.48" y2="67.09"/><line class="cls-8" x1="60.68" y1="73.86" x2="60.39" y2="72.2"/><line class="cls-8" x1="59.69" y1="68.26" x2="59.62" y2="67.86"/><line class="cls-8" x1="56.67" y1="74.21" x2="56.67" y2="72.53"/><line class="cls-8" x1="56.67" y1="68.53" x2="56.67" y2="68.11"/></svg>