<svg id="Layer_1" data-name="Layer 1" xmlns="http://www.w3.org/2000/svg" viewBox="0 0 111.19 109"><defs><style>.cls-1{fill:none;}.cls-1,.cls-3,.cls-4,.cls-5{stroke:#6c6c6c;}.cls-1,.cls-4{stroke-linecap:round;stroke-linejoin:round;}.cls-2{fill:#edf5eb;}.cls-3{fill:#ceeaf7;}.cls-3,.cls-5{stroke-miterlimit:10;}.cls-4{fill:#fff;}.cls-5{fill:#ffd8d2;}</style></defs><path class="cls-1" d="M81.73,66A67.12,67.12,0,0,0,90,41.93"/><path class="cls-1" d="M31.8,66a67.25,67.25,0,0,1-9-33.56v-19L56.76.5,90.68,13.44V20"/><path class="cls-1" d="M37.74,74.7A67,67,0,0,0,49.07,85.81l7.69,5.93,7.69-5.93A66.67,66.67,0,0,0,75.79,74.7"/><path class="cls-2" d="M14.64,77a10.84,10.84,0,0,0,5.76-1.67A10.79,10.79,0,1,1,5.52,60.48,10.79,10.79,0,0,0,14.64,77Z"/><path class="cls-1" d="M20.4,75.36a10.6,10.6,0,0,0,1.68-5.77A10.79,10.79,0,0,0,11.29,58.8a10.6,10.6,0,0,0-5.77,1.68A10.79,10.79,0,1,0,20.4,75.36Z"/><polyline class="cls-1" points="6.05 69.85 9.37 73.16 16.52 66"/><path class="cls-3" d="M46.75,40.72a10,10,0,0,1,20,0"/><line class="cls-1" x1="41.04" y1="67.81" x2="41.04" y2="51.93"/><line class="cls-1" x1="72.49" y1="51.93" x2="72.49" y2="67.81"/><polyline class="cls-1" points="41.04 47.48 41.04 45.59 72.49 45.59 72.49 47.48"/><polyline class="cls-1" points="36.19 68.84 36.19 49.7 43.27 49.7"/><polyline class="cls-1" points="70.26 49.7 77.33 49.7 77.33 68.84"/><polyline class="cls-1" points="69.05 40.89 69.05 45.59 44.48 45.59 44.48 40.89"/><line class="cls-1" x1="41.14" y1="40.89" x2="72.38" y2="40.89"/><polyline class="cls-3" points="29.95 73.53 29.95 70.89 83.58 70.89 83.58 73.53"/><line class="cls-1" x1="89.14" y1="74.1" x2="24.39" y2="74.1"/><line class="cls-1" x1="47.48" y1="49.7" x2="47.48" y2="64.5"/><line class="cls-1" x1="53.67" y1="49.7" x2="53.67" y2="64.5"/><line class="cls-1" x1="59.86" y1="49.7" x2="59.86" y2="64.5"/><line class="cls-1" x1="66.05" y1="49.7" x2="66.05" y2="64.5"/><line class="cls-1" x1="56.76" y1="21.94" x2="56.76" y2="30.72"/><rect class="cls-1" x="56.76" y="21.94" width="7.46" height="5.21"/><path class="cls-1" d="M62.74,6.08h0a49.68,49.68,0,0,0-11.94,0h0"/><path class="cls-1" d="M7.18,53.5A49.62,49.62,0,0,1,19.76,25.28"/><path class="cls-1" d="M15,85.77a49.84,49.84,0,0,0,91.66-27.12"/><path class="cls-1" d="M25.93,16.43q1.16-.93,2.37-1.77h0"/><path class="cls-1" d="M85.21,14.65h0c.81.56,1.61,1.15,2.38,1.77"/><path class="cls-1" d="M10.34,53A46.4,46.4,0,0,1,22.85,26.46"/><path class="cls-1" d="M18,84.78a46.75,46.75,0,0,0,38.79,20.63"/><path class="cls-1" d="M13.88,50.31c.26-1.33.58-2.64.95-3.93a43.27,43.27,0,0,1,4.93-10.92"/><path class="cls-1" d="M20.7,83.25A43.75,43.75,0,0,0,35.91,97"/><path class="cls-1" d="M97,75.55A43.89,43.89,0,0,1,85.8,91.25"/><polyline class="cls-4" points="99.1 47.29 98.55 51.8 92.7 53.86 95.65 40.72"/><path class="cls-4" d="M99.73,42.05"/><polyline class="cls-4" points="103.12 40.72 106.06 53.86 100.22 51.8 99.39 44.96 99.08 42.41"/><path class="cls-5" d="M107.93,27.6c-.52-1.25.39-3.5-.55-4.45s-3.2,0-4.46-.56-2.14-2.76-3.53-2.76-2.33,2.26-3.54,2.76-3.51-.39-4.46.56,0,3.2-.55,4.45-2.76,2.15-2.76,3.54,2.25,2.33,2.76,3.54-.39,3.5.55,4.45,3.2,0,4.46.56,2.14,2.76,3.54,2.76,2.32-2.26,3.53-2.76,3.51.39,4.46-.56,0-3.2.55-4.45,2.76-2.15,2.76-3.54S108.44,28.81,107.93,27.6Zm-8.55,7.28a3.74,3.74,0,1,1,3.74-3.74A3.74,3.74,0,0,1,99.38,34.88Z"/><line class="cls-1" x1="70.43" y1="67.81" x2="43.1" y2="67.81"/><line class="cls-1" x1="45.29" y1="77.07" x2="68.24" y2="77.07"/><line class="cls-1" x1="66.02" y1="80.5" x2="47.5" y2="80.5"/><line class="cls-1" x1="61.84" y1="83.93" x2="51.69" y2="83.93"/><line class="cls-1" x1="68.24" y1="87.37" x2="67.46" y2="87.37"/><line class="cls-1" x1="46.07" y1="87.37" x2="45.29" y2="87.37"/><line class="cls-1" x1="57.39" y1="87.37" x2="56.14" y2="87.37"/></svg>